<svg width="719" height="157" viewBox="0 0 719 157" fill="none" xmlns="http://www.w3.org/2000/svg">
<path d="M107.033 127.608C106.287 129.118 105.471 130.591 104.588 132.028C97.0909 144.227 86.5439 149.992 72.5629 149.992C68.4789 149.992 66.4399 145.043 69.3199 142.164L72.2669 139.217C74.9869 136.497 74.2449 131.921 70.8029 130.2C67.5019 128.549 63.7509 130.515 62.7789 134.091C59.8259 144.945 52.4989 152.602 41.5899 156.24C38.4139 157.301 35.2289 154.703 35.5839 151.401L37.5649 132.96C36.6909 131.361 34.9519 130.395 33.1539 130.597C25.7289 131.428 16.0489 134.922 12.0719 146.855C10.7789 150.725 5.44194 151.098 3.61994 147.454C-4.70206 130.815 1.79593 110.579 18.2799 101.907L23.5009 99.1585C27.7279 96.9335 27.1999 90.6335 22.5599 89.2185C20.6219 88.6285 18.6049 89.1325 17.1709 90.5665L10.9629 96.7745C8.55393 99.1835 4.44593 98.2085 3.37293 94.9805C-3.01307 75.8345 5.72093 55.2725 29.7279 44.7905C28.6789 49.5555 28.1259 54.5045 28.1259 59.5785C28.1259 97.5025 58.9769 128.354 96.9009 128.354C100.342 128.354 103.725 128.1 107.033 127.608Z" fill="#092B77"/>
<path d="M51.6341 20.7963C45.7271 27.6803 41.6481 35.6063 39.4001 43.9273C49.7491 48.1503 61.6881 46.6683 70.7311 39.8943L51.6341 20.7963ZM110.048 79.2093L96.9001 66.0613L58.1181 104.843C70.9801 115.877 87.4671 120.532 103.388 118.803C98.6571 105.561 100.978 90.5223 110.048 79.2093ZM116.584 85.7453C109.758 94.8363 108.33 106.773 112.546 117.081C120.865 114.831 128.795 110.752 135.681 104.843L116.584 85.7453ZM77.2681 46.4303C66.0201 55.4303 50.9751 57.8183 37.6731 53.0813C35.9441 69.0063 40.5971 85.4953 51.6341 98.3603L90.4161 59.5783L77.2681 46.4303ZM90.4031 0.351308C94.9501 13.1393 93.0931 28.2993 83.7551 39.9483L96.9011 53.0943L135.683 14.3123C122.817 3.27531 106.328 -1.37769 90.4031 0.351308ZM81.2151 2.08731C72.9091 4.33731 64.9941 8.41331 58.1181 14.3123L77.2121 33.4063C84.0011 24.3123 85.3451 12.3253 81.2151 2.08731ZM154.404 75.2203C144.098 70.9973 132.168 72.4233 123.066 79.2603L142.166 98.3603C148.077 91.4713 152.154 83.5433 154.404 75.2203ZM156.124 66.0813C157.857 50.1563 153.204 33.6623 142.166 20.7963L103.384 59.5783L116.534 72.7283C127.721 63.7743 142.726 61.3243 156.124 66.0813Z" fill="url(#paint0_linear_1088_135)"/>
<path d="M228.875 69.813C232.39 70.6067 235.168 72.3644 237.209 75.0859C239.307 77.7507 240.356 80.8124 240.356 84.271C240.356 89.3739 238.599 93.3711 235.083 96.2627C231.568 99.1543 226.635 100.6 220.285 100.6H190.603V40.6417H219.349C225.473 40.6417 230.264 42.0025 233.722 44.724C237.238 47.4455 238.995 51.2727 238.995 56.2054C238.995 59.7207 238.06 62.669 236.189 65.0503C234.374 67.375 231.936 68.9625 228.875 69.813ZM207.273 64.455H215.692C219.888 64.455 221.986 62.7257 221.986 59.2671C221.986 55.6951 219.888 53.9091 215.692 53.9091H207.273V64.455ZM216.968 87.1626C221.164 87.1626 223.262 85.405 223.262 81.8897C223.262 80.0753 222.695 78.6862 221.561 77.7224C220.483 76.7585 218.924 76.2766 216.883 76.2766H207.273V87.1626H216.968ZM244.94 76.7018C244.94 71.7691 245.819 67.46 247.577 63.7746C249.391 60.0892 251.829 57.2543 254.891 55.2699C258.009 53.2854 261.468 52.2932 265.266 52.2932C268.555 52.2932 271.39 52.9453 273.771 54.2493C276.152 55.5534 277.995 57.311 279.299 59.5222V52.8886H295.968V100.6H279.299V93.9664C277.995 96.1776 276.124 97.9353 273.686 99.2393C271.305 100.543 268.498 101.195 265.266 101.195C261.468 101.195 258.009 100.203 254.891 98.2188C251.829 96.2343 249.391 93.3994 247.577 89.714C245.819 85.972 244.94 81.6345 244.94 76.7018ZM279.299 76.7018C279.299 73.6401 278.449 71.2304 276.748 69.4728C275.104 67.7151 273.062 66.8363 270.624 66.8363C268.13 66.8363 266.06 67.7151 264.416 69.4728C262.772 71.1737 261.95 73.5834 261.95 76.7018C261.95 79.7635 262.772 82.2015 264.416 84.0159C266.06 85.7735 268.13 86.6523 270.624 86.6523C273.062 86.6523 275.104 85.7735 276.748 84.0159C278.449 82.2582 279.299 79.8202 279.299 76.7018ZM325.793 101.195C321.484 101.195 317.629 100.487 314.227 99.0692C310.882 97.5951 308.217 95.6107 306.233 93.1159C304.305 90.5645 303.228 87.7013 303.001 84.5262H319.16C319.387 86.057 320.095 87.2477 321.286 88.0981C322.477 88.9486 323.951 89.3739 325.708 89.3739C327.069 89.3739 328.146 89.0904 328.94 88.5234C329.734 87.9564 330.131 87.2193 330.131 86.3121C330.131 85.1215 329.479 84.2427 328.175 83.6757C326.871 83.1087 324.716 82.485 321.711 81.8046C318.309 81.1243 315.474 80.3588 313.206 79.5084C310.939 78.6579 308.954 77.2688 307.253 75.341C305.609 73.4133 304.787 70.8052 304.787 67.5167C304.787 64.6818 305.552 62.1304 307.083 59.8624C308.614 57.5378 310.853 55.6951 313.802 54.3344C316.807 52.9736 320.407 52.2932 324.603 52.2932C330.84 52.2932 335.744 53.8241 339.316 56.8858C342.888 59.9475 344.957 63.9731 345.524 68.9625H330.471C330.188 67.4316 329.507 66.2693 328.43 65.4756C327.409 64.6251 326.02 64.1998 324.263 64.1998C322.902 64.1998 321.853 64.455 321.116 64.9653C320.435 65.4756 320.095 66.1843 320.095 67.0915C320.095 68.2254 320.747 69.1042 322.051 69.7279C323.355 70.2949 325.453 70.8902 328.345 71.5139C331.803 72.251 334.667 73.0731 336.935 73.9803C339.259 74.8875 341.272 76.3616 342.973 78.4028C344.731 80.3872 345.609 83.1087 345.609 86.5673C345.609 89.3455 344.787 91.8402 343.143 94.0515C341.556 96.2627 339.259 98.0203 336.254 99.3244C333.306 100.572 329.819 101.195 325.793 101.195ZM383.656 100.6L370.474 81.0392V100.6H353.805V37.6651H370.474V71.599L383.656 52.8886H403.642L384.847 76.8719L403.983 100.6H383.656ZM454.455 76.1915C454.455 77.4956 454.37 78.7996 454.2 80.1037H422.647C422.817 82.7118 423.526 84.6679 424.773 85.972C426.077 87.2193 427.722 87.843 429.706 87.843C432.484 87.843 434.469 86.5956 435.659 84.1009H453.434C452.697 87.3894 451.251 90.3377 449.097 92.9458C446.999 95.4973 444.334 97.51 441.102 98.9842C437.871 100.458 434.299 101.195 430.386 101.195C425.68 101.195 421.485 100.203 417.799 98.2188C414.171 96.2343 411.307 93.3994 409.21 89.714C407.168 86.0287 406.148 81.6912 406.148 76.7018C406.148 71.7124 407.168 67.4033 409.21 63.7746C411.251 60.0892 414.086 57.2543 417.714 55.2699C421.4 53.2854 425.624 52.2932 430.386 52.2932C435.092 52.2932 439.26 53.2571 442.888 55.1848C446.517 57.1126 449.352 59.8908 451.393 63.5195C453.434 67.0915 454.455 71.3155 454.455 76.1915ZM437.445 72.0242C437.445 69.9831 436.765 68.3955 435.404 67.2616C434.043 66.0709 432.342 65.4756 430.301 65.4756C428.26 65.4756 426.588 66.0425 425.284 67.1765C423.979 68.2538 423.129 69.8697 422.732 72.0242H437.445ZM489.427 86.3972V100.6H482.198C470.008 100.6 463.913 94.5617 463.913 82.485V66.7513H458.045V52.8886H463.913V41.3221H480.667V52.8886H489.342V66.7513H480.667V82.7402C480.667 84.0442 480.951 84.9797 481.518 85.5467C482.141 86.1137 483.162 86.3972 484.579 86.3972H489.427ZM494.351 76.7018C494.351 71.7691 495.23 67.46 496.988 63.7746C498.802 60.0892 501.24 57.2543 504.302 55.2699C507.42 53.2854 510.879 52.2932 514.678 52.2932C517.966 52.2932 520.801 52.9453 523.182 54.2493C525.564 55.5534 527.406 57.311 528.71 59.5222V52.8886H545.38V100.6H528.71V93.9664C527.406 96.1776 525.535 97.9353 523.097 99.2393C520.716 100.543 517.909 101.195 514.678 101.195C510.879 101.195 507.42 100.203 504.302 98.2188C501.24 96.2343 498.802 93.3994 496.988 89.714C495.23 85.972 494.351 81.6345 494.351 76.7018ZM528.71 76.7018C528.71 73.6401 527.86 71.2304 526.159 69.4728C524.515 67.7151 522.474 66.8363 520.036 66.8363C517.541 66.8363 515.471 67.7151 513.827 69.4728C512.183 71.1737 511.361 73.5834 511.361 76.7018C511.361 79.7635 512.183 82.2015 513.827 84.0159C515.471 85.7735 517.541 86.6523 520.036 86.6523C522.474 86.6523 524.515 85.7735 526.159 84.0159C527.86 82.2582 528.71 79.8202 528.71 76.7018ZM586.091 52.4633C591.59 52.4633 595.956 54.306 599.188 57.9914C602.42 61.6201 604.036 66.5528 604.036 72.7896V100.6H587.366V75.0009C587.366 72.2793 586.658 70.1532 585.24 68.6223C583.823 67.0348 581.923 66.241 579.542 66.241C577.047 66.241 575.091 67.0348 573.674 68.6223C572.256 70.1532 571.548 72.2793 571.548 75.0009V100.6H554.878V52.8886H571.548V59.6923C573.022 57.5378 575.006 55.8085 577.501 54.5045C579.996 53.1437 582.859 52.4633 586.091 52.4633ZM621.262 101.28C618.313 101.28 615.932 100.487 614.118 98.8992C612.36 97.2549 611.481 95.1854 611.481 92.6907C611.481 90.196 612.36 88.1265 614.118 86.4822C615.932 84.838 618.313 84.0159 621.262 84.0159C624.153 84.0159 626.478 84.838 628.236 86.4822C630.05 88.1265 630.957 90.196 630.957 92.6907C630.957 95.1287 630.05 97.1699 628.236 98.8141C626.478 100.458 624.153 101.28 621.262 101.28ZM647.183 48.4661C644.234 48.4661 641.853 47.6723 640.039 46.0848C638.281 44.4405 637.402 42.3994 637.402 39.9614C637.402 37.4666 638.281 35.3972 640.039 33.7529C641.853 32.1087 644.234 31.2865 647.183 31.2865C650.074 31.2865 652.399 32.1087 654.156 33.7529C655.971 35.3972 656.878 37.4666 656.878 39.9614C656.878 42.3994 655.971 44.4405 654.156 46.0848C652.399 47.6723 650.074 48.4661 647.183 48.4661ZM655.432 52.8886V100.6H638.763V52.8886H655.432ZM662.203 76.7018C662.203 71.7691 663.082 67.46 664.84 63.7746C666.654 60.0892 669.121 57.2543 672.239 55.2699C675.357 53.2854 678.816 52.2932 682.615 52.2932C685.676 52.2932 688.398 52.9453 690.779 54.2493C693.217 55.4967 695.117 57.226 696.477 59.4372V37.6651H713.232V100.6H696.477V93.9664C695.173 96.1776 693.331 97.9353 690.949 99.2393C688.568 100.543 685.762 101.195 682.53 101.195C678.731 101.195 675.272 100.203 672.154 98.2188C669.092 96.2343 666.654 93.3994 664.84 89.714C663.082 85.972 662.203 81.6345 662.203 76.7018ZM696.563 76.7018C696.563 73.6401 695.712 71.2304 694.011 69.4728C692.367 67.7151 690.326 66.8363 687.888 66.8363C685.393 66.8363 683.323 67.7151 681.679 69.4728C680.035 71.1737 679.213 73.5834 679.213 76.7018C679.213 79.7635 680.035 82.2015 681.679 84.0159C683.323 85.7735 685.393 86.6523 687.888 86.6523C690.326 86.6523 692.367 85.7735 694.011 84.0159C695.712 82.2582 696.563 79.8202 696.563 76.7018Z" fill="white"/>
<defs>
<linearGradient id="paint0_linear_1088_135" x1="155.039" y1="1.43891" x2="56.1852" y2="100.293" gradientUnits="userSpaceOnUse">
<stop stop-color="#002983"/>
<stop offset="1" stop-color="#155DFC"/>
</linearGradient>
</defs>
</svg>
